<svg viewBox="0 0 500 500" height="800">
    <defs>
        <symbol id="gear" viewBox="0 0 500 500">
            <defs>
                <g id="spoke">
                    <path d="M 0 100 L 20 0 L 80 0 L 100 100 Z" stroke-width="10"/>
                </g>
            </defs>
            <g>
                <circle cx="250" cy="250" r="150" stroke-width="100" fill="transparent"/>
                <use href="#spoke" x="200" y="0" height="100" width="100" transform="rotate(0, 250, 250)"/>
                <use href="#spoke" x="200" y="0" height="100" width="100" transform="rotate(90, 250, 250)"/>
                <use href="#spoke" x="200" y="0" height="100" width="100" transform="rotate(180, 250, 250)"/>
                <use href="#spoke" x="200" y="0" height="100" width="100" transform="rotate(270, 250, 250)"/>
                <use href="#spoke" x="200" y="0" height="100" width="100" transform="rotate(45, 250, 250) translate(0, -15)"/>
                <use href="#spoke" x="200" y="0" height="100" width="100" transform="rotate(135, 250, 250) translate(0, -15)"/>
                <use href="#spoke" x="200" y="0" height="100" width="100" transform="rotate(225, 250, 250) translate(0, -15)"/>
                <use href="#spoke" x="200" y="0" height="100" width="100" transform="rotate(315, 250, 250) translate(0, -15)"/>
                <animateTransform attributeName="transform" attributeType="XML" type="rotate" from="0 250 250" to="360 250 250" dur="3s" repeatCount="indefinite"/>
                <circle cx="250" cy="250" r="30" stroke-width="100" fill="transparent"/>
            </g>
        </symbol>
        <symbol id="worker" viewBox="0 0 250 250">
            <use href="#gear" height="100" widht="100" x="-70" fill="blue" stroke="blue"/>
            <use href="#gear" height="50" widht="50" x="0" fill="black" stroke="black"/>
            <use href="#gear" height="70" widht="70" x="5" y="50" fill="red" stroke="red"/>
            <use href="#gear" height="70" widht="70" x="-50" y="100" fill="red" stroke="red"/>
            <use href="#gear" height="50" widht="50" x="-105" y="90" fill="black" stroke="black"/>
        </symbol>
    </defs>
    <use href="#worker" x="-25" y="20" height="700" width="800"/>
</svg>
